<svg id="Capa_1" enable-background="new 0 0 512 512" height="512" viewBox="0 0 512 512" width="512" xmlns="http://www.w3.org/2000/svg"><g><path id="Path_12_" d="m128 44.8-128 128 64 39.617 64-39.617 36.141-64z" fill="#ff2820"/><path id="Path_11_" d="m128 172.8h-128v166.4l64 35.145 64-35.145z" fill="#0084ff"/><path id="Path_10_" d="m0 339.2v85.333c0 23.467 19.2 42.667 42.667 42.667h85.333l36.141-67.942-36.141-60.058z" fill="#06d"/><path d="m485.565 90.246-79.165 62.711v.643l-25.819 98.57 25.819 99.753 78.813 63.431c10.574 8.873 26.787 1.42 26.787-12.422v-300.264c0-13.842-15.861-21.295-26.435-12.422z" fill="#00ad3c"/><path d="m406.4 152.957v-65.98c0-23.197-18.792-42.177-41.76-42.177h-83.52-153.12v128h156.8v83.2l84.244-9.385z" fill="#ffba00"/><path d="m284.8 339.2h-156.8v128h153.12 83.52c22.968 0 41.76-18.952 41.76-42.116v-73.084l-41.793-85.861-79.807-10.139z" fill="#00ad3c"/><path d="m284.8 256 121.6 96v-199.043z" fill="#00831e"/></g></svg>